# xmcd
#
# Track frame offsets: 
#        150
#        19343
#        36096
#        51810
#        64923
#        75040
#        94252
#        108788
#        125822
#        142666
#
# Disc length: 2081 seconds
#
# Revision: 0
# Processed by: cddbd v1.5.2PL0 Copyright (c) Steve Scherf et al.
# Submitted via: ExactAudioCopy v0.95b4
#
DISCID=79081f0a
DTITLE=Rod Picott - Welding Burns
DYEAR=2011
DGENRE=Country
TTITLE0=Rust Belt Fields
TTITLE1=Welding Burns
TTITLE2=Black T-Shirt
TTITLE3=410
TTITLE4=Little Scar
TTITLE5=Sheetrock Hanger
TTITLE6=Jealous Heart
TTITLE7=Still I Want You Bad
TTITLE8=Your Father's Tattoo
TTITLE9=When My Running Is Through
EXTD=
EXTT0=
EXTT1=
EXTT2=
EXTT3=
EXTT4=
EXTT5=
EXTT6=
EXTT7=
EXTT8=
EXTT9=
PLAYORDER=
